# xmcd
#
# Track frame offsets:
#	150
#	20940
#	37032
#	54747
#	73644
#	88941
#	107022
#	125799
#	147555
#	160638
#	175824
#	195624
#	211272
#	225012
#
# Disc length: 3208 seconds
#
# Revision: 0
# Processed by: cddbd v1.5PL3 Copyright (c) Steve Scherf et al.
# Submitted via: dBpowerAMP V4.0
#
DISCID=c90c860e
DTITLE=Ricr and Renner - Os Gigantes
DYEAR=1900
DGENRE=
TTITLE0=Instante  Mágico
TTITLE1=Muleca
TTITLE2=Fim de Semana
TTITLE3=Cara de Pau
TTITLE4=Ela É Demais
TTITLE5=Seguir Em Frente
TTITLE6=Cara Metade
TTITLE7=Mil Vezes Cantarei
TTITLE8=A Gente Se Entende
TTITLE9=Na Pontinha Do Pé
TTITLE10=Assim É O Nosso Amor
TTITLE11=Preciso Dizer Que Te Amo
TTITLE12=Peão Que É Peão
TTITLE13=Enrosca, Enrosca
EXTD=Rick e Renner
EXTT0=
EXTT1=
EXTT2=
EXTT3=
EXTT4=
EXTT5=
EXTT6=
EXTT7=
EXTT8=
EXTT9=
EXTT10=
EXTT11=
EXTT12=
EXTT13=
PLAYORDER=
